<svg xmlns="http://www.w3.org/2000/svg" version="1.1" xmlns:xlink="http://www.w3.org/1999/xlink" xmlns:svgjs="http://svgjs.dev/svgjs" width="1500" height="204" viewBox="0 0 1500 204"><g transform="matrix(1,0,0,1,-0.9090909090909918,6.918623763413137)"><svg viewBox="0 0 396 54" data-background-color="#1ebbd7" preserveAspectRatio="xMidYMid meet" height="204" width="1500" xmlns="http://www.w3.org/2000/svg" xmlns:xlink="http://www.w3.org/1999/xlink"><g id="tight-bounds" transform="matrix(1,0,0,1,0.2400000000000091,0.36640104570389553)"><svg viewBox="0 0 395.52 53.26719790859223" height="53.26719790859223" width="395.52"><g><svg viewBox="0 0 537.688720489045 72.41396512820512" height="53.26719790859223" width="395.52"><g transform="matrix(1,0,0,1,0,10.008008205128206)"><svg viewBox="0 0 395.5199999999999 52.39794871794871" height="52.39794871794871" width="395.5199999999999"><g id="textblocktransform"><svg viewBox="0 0 395.5199999999999 52.39794871794871" height="52.39794871794871" width="395.5199999999999" id="textblock"><g><svg viewBox="0 0 395.5199999999999 52.39794871794871" height="52.39794871794871" width="395.5199999999999"><g transform="matrix(1,0,0,1,0,0)"><svg width="395.5199999999999" viewBox="3.9 -35 269.07000000000005 35.65" height="52.39794871794871" data-palette-color="#ffffff"><path d="M22.8 0L18.55-12.4Q17.65-12.25 16.55-12.25L16.55-12.25 6.7-12.25 6.7 0 3.9 0 3.9-35 16.2-35Q20.95-35 23.28-32.1 25.6-29.2 25.6-24.3L25.6-24.3Q25.6-20.55 24.78-17.65 23.95-14.75 21.2-13.25L21.2-13.25 25.65 0 22.8 0ZM16.6-15Q19.4-15 20.78-16.5 22.15-18 22.48-19.9 22.8-21.8 22.8-24.15L22.8-24.15Q22.8-28.25 21.1-30.3 19.4-32.35 16.4-32.35L16.4-32.35 6.7-32.35 6.7-15 16.6-15ZM46.7-1.75Q44.9-0.6 42.6 0 40.3 0.6 38 0.6L38 0.6Q34.3 0.6 32.12-1.23 29.95-3.05 29.95-6.7L29.95-6.7 29.95-16.95Q29.95-21 32.47-23.25 35-25.5 39.15-25.5L39.15-25.5Q43.3-25.5 45.62-23.28 47.95-21.05 47.95-17.1L47.95-17.1 47.95-10.6 32.75-9.75 32.75-6.7Q32.75-4.3 34.3-3.1 35.85-1.9 38.35-1.9L38.35-1.9Q41.85-1.9 45.6-3.9L45.6-3.9 46.7-1.75ZM45.15-17.45Q45.15-20.55 43.2-21.83 41.25-23.1 39.1-23.1L39.1-23.1Q36.35-23.1 34.55-21.6 32.75-20.1 32.75-16.9L32.75-16.9 32.75-12.5 45.15-13.1 45.15-17.45ZM71 0Q65.6 0.55 63.2 0.55L63.2 0.55Q57.95 0.55 54.85-1.4 51.75-3.35 51.75-8.45L51.75-8.45 51.75-12.6Q51.75-17.55 55.2-19.25L55.2-19.25Q56.85-20.1 59.4-20.1L59.4-20.1Q61.75-20.1 64.15-19.33 66.55-18.55 68.2-17.3L68.2-17.3Q68.2-20.05 66.6-21.68 65-23.3 60.45-23.3L60.45-23.3 60.6-25.45Q65.4-25.45 67.67-23.93 69.95-22.4 70.47-20.3 71-18.2 71-14.9L71-14.9 71 0ZM68.2-15.15Q66.15-16.1 63.82-16.8 61.5-17.5 59.55-17.5L59.55-17.5Q54.5-17.5 54.5-12.45L54.5-12.45 54.5-8.1Q54.5-4.85 56.75-3.38 59-1.9 63.15-1.9L63.15-1.9Q65.3-1.9 68.2-2.3L68.2-2.3 68.2-15.15ZM90.69-0.3Q87.59 0.5 84.69 0.5L84.69 0.5Q81.99 0.5 80.19-0.1L80.19-0.1Q77.24-1.1 75.92-3.18 74.59-5.25 74.59-9L74.59-9 74.59-15.4Q74.59-20.35 77.19-22.93 79.79-25.5 83.89-25.5L83.89-25.5Q87.14-25.5 90.59-23.9L90.59-23.9 89.79-21.85Q86.94-23 84.29-23L84.29-23Q81.19-23 79.29-21.23 77.39-19.45 77.39-15.7L77.39-15.7 77.39-8.45Q77.39-5 79.47-3.45 81.54-1.9 84.99-1.9L84.99-1.9Q87.24-1.9 90.09-2.55L90.09-2.55 90.69-0.3ZM99.44 0.65Q96.64-0.15 95.39-1.9 94.14-3.65 94.14-6.6L94.14-6.6 94.14-35 96.94-35 96.94-25.05 102.94-25.05 101.74-22.4 96.94-22.4 96.94-6.6Q96.94-2.6 100.24-1.5L100.24-1.5 99.44 0.65ZM144.29 0L139.34-29.95 134.39 0 130.14 0 121.89-35 124.89-35 132.04-3.45 137.39-35 141.29-35 146.64-3.45 153.69-35 156.69-35 148.54 0 144.29 0ZM174.13-1.75Q172.33-0.6 170.03 0 167.73 0.6 165.43 0.6L165.43 0.6Q161.73 0.6 159.56-1.23 157.38-3.05 157.38-6.7L157.38-6.7 157.38-16.95Q157.38-21 159.91-23.25 162.43-25.5 166.58-25.5L166.58-25.5Q170.73-25.5 173.06-23.28 175.38-21.05 175.38-17.1L175.38-17.1 175.38-10.6 160.18-9.75 160.18-6.7Q160.18-4.3 161.73-3.1 163.28-1.9 165.78-1.9L165.78-1.9Q169.28-1.9 173.03-3.9L173.03-3.9 174.13-1.75ZM172.58-17.45Q172.58-20.55 170.63-21.83 168.68-23.1 166.53-23.1L166.53-23.1Q163.78-23.1 161.98-21.6 160.18-20.1 160.18-16.9L160.18-16.9 160.18-12.5 172.58-13.1 172.58-17.45ZM198.43 0Q193.03 0.55 190.63 0.55L190.63 0.55Q185.38 0.55 182.28-1.4 179.18-3.35 179.18-8.45L179.18-8.45 179.18-12.6Q179.18-17.55 182.63-19.25L182.63-19.25Q184.28-20.1 186.83-20.1L186.83-20.1Q189.18-20.1 191.58-19.33 193.98-18.55 195.63-17.3L195.63-17.3Q195.63-20.05 194.03-21.68 192.43-23.3 187.88-23.3L187.88-23.3 188.03-25.45Q192.83-25.45 195.11-23.93 197.38-22.4 197.91-20.3 198.43-18.2 198.43-14.9L198.43-14.9 198.43 0ZM195.63-15.15Q193.58-16.1 191.26-16.8 188.93-17.5 186.98-17.5L186.98-17.5Q181.93-17.5 181.93-12.45L181.93-12.45 181.93-8.1Q181.93-4.85 184.18-3.38 186.43-1.9 190.58-1.9L190.58-1.9Q192.73-1.9 195.63-2.3L195.63-2.3 195.63-15.15ZM206.43 0.65Q203.63-0.15 202.38-1.9 201.13-3.65 201.13-6.6L201.13-6.6 201.13-35 203.93-35 203.93-25.05 209.93-25.05 208.73-22.4 203.93-22.4 203.93-6.6Q203.93-2.6 207.23-1.5L207.23-1.5 206.43 0.65ZM229.98 0L229.98-17.15Q229.98-20.2 228.2-21.58 226.43-22.95 223.63-22.95L223.63-22.95Q221.93-22.95 220.18-22.48 218.43-22 217.08-21.25L217.08-21.25 217.08 0 214.28 0 214.28-35 217.08-35 217.08-23.7Q218.33-24.55 220.08-25.03 221.83-25.5 223.73-25.5L223.73-25.5Q226.33-25.5 228.48-24.55L228.48-24.55Q230.48-23.65 231.6-21.85 232.73-20.05 232.73-17.3L232.73-17.3 232.73 0 229.98 0ZM254.22-1.75Q252.42-0.6 250.12 0 247.82 0.6 245.52 0.6L245.52 0.6Q241.82 0.6 239.65-1.23 237.47-3.05 237.47-6.7L237.47-6.7 237.47-16.95Q237.47-21 240-23.25 242.52-25.5 246.67-25.5L246.67-25.5Q250.82-25.5 253.15-23.28 255.47-21.05 255.47-17.1L255.47-17.1 255.47-10.6 240.27-9.75 240.27-6.7Q240.27-4.3 241.82-3.1 243.37-1.9 245.87-1.9L245.87-1.9Q249.37-1.9 253.12-3.9L253.12-3.9 254.22-1.75ZM252.67-17.45Q252.67-20.55 250.72-21.83 248.77-23.1 246.62-23.1L246.62-23.1Q243.87-23.1 242.07-21.6 240.27-20.1 240.27-16.9L240.27-16.9 240.27-12.5 252.67-13.1 252.67-17.45ZM260.47 0L260.47-25.05 263.27-25.05 263.12-23.3Q265.47-25.5 269.27-25.5L269.27-25.5Q270.62-25.5 272.97-25.05L272.97-25.05 272.22-22.5Q270.62-23 268.87-23L268.87-23Q266.57-23 264.92-22.15 263.27-21.3 263.27-19.6L263.27-19.6 263.27 0 260.47 0Z" opacity="1" transform="matrix(1,0,0,1,0,0)" fill="#ffffff" class="wordmark-text-0" data-fill-palette-color="primary" id="text-0"></path></svg></g></svg></g></svg></g></svg></g><g transform="matrix(1,0,0,1,407.88989814153837,0)"><svg viewBox="0 0 129.79882234750661 72.41396512820512" height="72.41396512820512" width="129.79882234750661"><g><svg xmlns="http://www.w3.org/2000/svg" xmlns:xlink="http://www.w3.org/1999/xlink" version="1.1" x="0" y="0" viewBox="14.266 30.063 71.467 39.870999999999995" enable-background="new 0 0 100 100" xml:space="preserve" height="72.41396512820512" width="129.79882234750661" class="icon-icon-0" data-fill-palette-color="accent" id="icon-0"><g fill="#ffffff" data-fill-palette-color="accent"><path d="M41.475 30.064C41.447 30.064 41.419 30.092 41.362 30.092 33.484 30.205 27.097 36.534 27.012 44.39 19.978 44.447 14.266 50.155 14.266 57.162 14.266 64.226 20.034 69.934 27.124 69.934H72.874C79.966 69.934 85.733 64.226 85.733 57.162 85.733 50.183 80.049 44.503 73.014 44.418 70.68 39.501 65.7 36.054 59.875 36.054 57.82 36.054 55.906 36.562 54.135 37.325 51.602 33.002 46.96 30.063 41.585 30.063zM41.587 31.647H41.671A13 13 0 0 1 53.123 38.626C53.32 38.993 53.826 39.163 54.193 38.993A12.74 12.74 0 0 1 59.877 37.665C65.279 37.665 69.922 40.915 71.891 45.549A0.74 0.74 0 0 0 72.623 46.001C72.848 46.001 72.932 45.973 72.875 45.973 79.121 45.973 84.158 51.003 84.158 57.163 84.158 63.351 79.121 68.352 72.875 68.352H27.125C20.879 68.352 15.842 63.351 15.842 57.163 15.842 51.003 20.879 45.973 27.125 45.973 27.294 45.973 27.491 46.03 27.772 46.03 28.194 46.058 28.616 45.663 28.616 45.211 28.588 44.985 28.588 44.759 28.588 44.533 28.588 37.411 34.384 31.647 41.587 31.647" fill="#ffffff" data-fill-palette-color="accent"></path></g></svg></g></svg></g></svg></g><defs></defs></svg><rect width="395.52" height="53.26719790859223" fill="none" stroke="none" visibility="hidden"></rect></g></svg></g></svg>